<?xml version="1.0" encoding="utf-8"?><!-- Uploaded to: SVG Repo, www.svgrepo.com, Generator: SVG Repo Mixer Tools -->
<svg version="1.1" id="Uploaded to svgrepo.com" xmlns="http://www.w3.org/2000/svg" xmlns:xlink="http://www.w3.org/1999/xlink" 
	 width="800px" height="800px" viewBox="0 0 32 32" xml:space="preserve">
<style type="text/css">
	.puchipuchi_een{fill:#111918;}
</style>
<path class="puchipuchi_een" d="M24,15.998C24,22,23,28,21,30s-7.172,2-7.172,2H13V21.921c2.226-0.381,3-2.184,3-5.921
	c0-3.737-0.774-5.539-3-5.921V0h0.828C13.828,0,19,0,21,2S24,10,24,15.998z M8.612,23.99L8.01,30.01C7.9,31.104,8.711,32,9.811,32
	H12V22h-1.189C9.711,22,8.721,22.896,8.612,23.99z M8.01,1.99l0.602,6.02C8.721,9.104,9.711,10,10.811,10H12V0H9.811
	C8.711,0,7.9,0.896,8.01,1.99z"/>
</svg>